<?xml version="1.0" encoding="UTF-8"?>
<svg id="_Слой_2" data-name="Слой 2" xmlns="http://www.w3.org/2000/svg" viewBox="0 0 150.01 150">
  <defs>
    <style>
      .cls-1 {
        fill: #8b4513;
        stroke-width: 0px;
      }
    </style>
  </defs>
  <g id="_Слой_1-2" data-name="Слой 1">
    <g>
      <polygon class="cls-1" points="149.2 145.5 149.83 144.94 149.03 141.98 149.2 145.5"/>
      <path class="cls-1" d="m149.88,115.13c-.69-2.72-1.13-7.91-2.45-8l1.18,4.92c-1,.69-.93,3.92-.61,6.78l-.06-3.24c.13.84.77.3.9,1.14-.51,4.96.86,6.23-.22,10.81l-.1-.26.65,3.62c-.15,1.14-.62.69-.79.32.53,3.23,1.08,5.67,1.02,10.04,1.8-3.38-1.41-9.59.4-12.96l.1.26c-.67-4.22.49-9.13,0-13.42Z"/>
      <path class="cls-1" d="m148.35,131.22c-.02-.1-.03-.19-.05-.28-.05.02-.02.14.05.28Z"/>
      <path class="cls-1" d="m103.17.64l-.17.28c.25-.1.48-.2.17-.28Z"/>
      <path class="cls-1" d="m147.34,9.69c.01-.09.02-.17.03-.26-.4-.34-.3-.16-.03.26Z"/>
      <path class="cls-1" d="m43.76,149.01l1.04.42c-.26-.39-.62-.47-1.04-.42Z"/>
      <path class="cls-1" d="m82.58,143.69l-.14-.37c-.14.21-.06.32.14.37Z"/>
      <path class="cls-1" d="m105.59,142.96c.64.1,1.27.16,1.91.17-.44-.21-1.25-.25-1.91-.17Z"/>
      <path class="cls-1" d="m115.04,149.34c-.27.04-.53.08-.7.15.21-.07.45-.11.7-.15Z"/>
      <path class="cls-1" d="m47.95,143.01l-.89-.96c.01.31.47.64.89.96Z"/>
      <path class="cls-1" d="m112.47,142.53c-.22-.19-.62-.34-1.2-.34.32.18.75.28,1.2.34Z"/>
      <path class="cls-1" d="m149.82,110.41c.01.66.03,1.4.14,2.31.07-.86,0-1.61-.14-2.31Z"/>
      <path class="cls-1" d="m5.81,61.33c-.08-.51-.22-.54-.37-.42.1.18.22.32.37.42Z"/>
      <path class="cls-1" d="m5.3,137.51l.03.25c.04-.07.09-.16.15-.32l-.18.07Z"/>
      <path class="cls-1" d="m5.14,115.15c.06.11.13.21.21.3-.09-.22-.15-.27-.21-.3Z"/>
      <path class="cls-1" d="m10.96,141.29c.27-.08.54-.19.78-.33l-.78.33Z"/>
      <path class="cls-1" d="m9.15,2.95s.07.06.14.1c-.01-.04-.07-.07-.14-.1Z"/>
      <path class="cls-1" d="m.78,100.98c-.18.07-.25.38-.28-.18-.66,1.41-.15,6.11.29,9.69l-.53.2c1.15,1.29.82,7.47,1.97,8.76-.25.39-.49-.68-.69-1.18-1.09,1.87.52,3.26.28,5.66-.28-.18-.61.52-.82.02-.46,2.95-.46,6.4-.33,10.1.09,1.85.18,3.76.27,5.7.02.49.05.97.07,1.46.02.85.04,1.7.07,2.55.03,1.68.07,3.36.1,5.04,2.4-.03,4.75-.04,7.1-.02l1.21.03,1.02.04c.68.03,1.36.08,2.03.13,2.88.04-1.05-1.22,2.72-1.14,1.09.59-1.84,1.18.55,1.43,1.73-.72,2.37-.57,4.68-.51-.42.38-.04.64-1.67.9,1.34.48,5.68-.92,8.34.04-.13-.36.35-.56.85-.77,3.92-1.01,8.99,1.02,9.36.45,0,0,1.37-.16.18-.28,1.44.02,3.51.19,3.15.76.75-.31,1.41-.8,2.55-.86l-.61.67c.65-.14,1.41-.57,2.05-.65l-1.02-.41c1.65.56,4.88-.79,4.78.49l-.56.03,3.08.58c1.23-.52,2.48-1.04,4.55-.86.8,1.33,5.28.29,7.91.43l-.12.46c2.06-.65,7.34-.36,6.38-.59,2,0,4.71.32,3.71.73,1.63-.26,5.07-.25,5.93-1.02l3.28,1.11c1.97-1.65,6.55.59,6.74-1.15,1.83.27,1.4.66,2.67.96,2.54-.86,5.17-.71,7.81-.57l.07.18c2.64.14,5.74-.74,9.44-.83l.78,1.33c1.94-.19,2.41-1.22,4.25-.94.43.2.02.27-.47.35,1.81-.26,4.25.07,5.62.4,2.79-.96,4.93-.6,7.4-1.64,2.17,1.17-3.24.52-1.38,1.62,3.97.62,8.02-.03,12.39-.61.38.25-.11.46-.29.74,0,0,8.86-3.2,7.21-4.46,1.1-.87,2.34-1.39-1.39-2.12-1.24.52-4.73,1.14-5.39.17l-.22.92c-4.99.43-.44-1.9-6.45-1.87l1.27.3c-1.13.05-2.04.65-3.32.35-.38-.26.43-.38.92-.59l-4.97,1.25c-.21-.54-.02-.82.97-1.23-4.57.04.92,1.69-4.66,1.32-1.01-.4.36-.57,1.1-.87-2.59-.79-4.33-.06-6.99.43-.04-.82,1.72-.73-.48-1.25.44.43.72,1.15-.97,1.23.82-.83-1.29-.44-2.94-.65.34.29.21.68-.44.82-.81.13-1.5-.2-2.63-.15l2.03.81c-2.84.78-4.46-.42-6.61-.77.18-.15.55-.26.98-.3-2.28-.34-4.62-1-7.5-.29l.25-.1c-5.42.81,1.67,1.38-4.64,2.14-2.08-.17.99-2.69-3.8-1.73,2.27.71-3.09,1.7-5.83,2.02l2.83-1.6c-1.1-.01-3.01.43-3.62.27l.14.36c.21,1.36-3.53-.19-5.51.64,2.46-1.85,2.6-1.5,3.05-3.34-1.92,1.01-4.14,1.94-7.66,1.75l2.89-1.42c-4.7-.32-10.22,1.78-14.07,2.97,1.04-1.05-.55-1.43,1.13-2.34l-4.51.22,1.27-1.16c-1.84,1.19-3.87.37-3.57,1.91.49-.21.43-.38,1.3-.34-.11.46-.89,1.41-3.22,1.35-1.57-.38.92-.59.49-1.03-1.5.62-1.59-.38-3.14.06l1.39.66c-1.09.88-2.58.04-4.11.48,1.85-.38,1.24-.89.55-1.43l.1.12c-1.12.05-2.61.68-3.38.16l.96-1.23-1.66.9c-.63-.15-1.07-.59-.02-.82-5.15-.75.15,2.64-6.6,1.51.11-.46.85-.78,2.68-.5.3-.74-.16-1.18-1.98-1.45-.03-.06,0-.09-.01-.14-3.51-.02-8.08-.08-10.39.74-.7-.33.05-.64.79-.95-3.89-.45-5.17.71-9.21-.09l1.9.46c-2.61.68-7.43.82-9.76-.07l.73-.3c-.62.18-1.33.24-2.06.22-.37,0-.74-.03-1.11-.07l-.55-.06-.27-.03c-.08,0-.21-.02-.18-.03-.14-.17.02-.36-.25-.04-.1.2-.18.36-.28.52-.08.16-.17.31,0,.5-.32.11-.7.21-1.14.32-.15-.32-.3-.76-.44-1.33.42-.15.83-.25,1.25-.31-.04.05-.07-.37-.1-.62l-.1-.83-.21-1.67c-.5.82.39-4.47-.79-4.55.45-1.9.95.78,1.43,1.46-.36-1.88.17-2.08-.55-3.82l1.09-1.86-.78-4.89c.1.25.18-.06.28.18-.93-2.24.54-5.68-1.05-8.53.06.15.11.1.18.15-.86-1.56-.24-5.41-.05-6.82-.21-2.52-1.05-1.05-1.51-1.15.28-7.31.21-4.98-1.09-11.12,1.37-3.68,2.21,4.34,3.16-.33-.67-.62-1.19-3.87-1.45-7.52.47-3.35.83-8.95,1.77-12.19l-.89.33-.5-4.71,1.3,2.68c-.3-.75-.88-3.11-1.32-4.69-.78-4.89,1.95-2.77.59-6.57.1-.15.19-.28.29-.36-.69-1.22-.44-4.43-.7-8.12l1.15,1.29-.24,2.39c1.12-1.29-.19-3.96-.12-6.29-.39-2.44-1.33-1.22-1.67-2.53.05-.88-.29-2.19.04-2.9.35-2.14,1.35-.23,1.84.45-1.18-1.85-1.03-2.49-1.5-6.62.55-.22.8.08.91.63-.15-.87-.39-1.63-.89-2.08l.66-1.4c.95-4.7-2.13-4.66-1.77-10.28.62,1.5-.15-4.84.59-6.56.18,1.95,1.68-.93,2.38.25.42-4.49-1.36-1.79-1.63-5.43l1.43,1.47c-.62-3.5-.77-.85-1.22-4.43.41.99.38-1.59.84.53.07-2.33.07-3.19.08-3.99,0-.4.01-.78.02-1.31.01-.17.04-.28.08-.49-.46-.26-.92-.55-1.38-.87-.11-.58.15-.67.4-.56.19.11.34.23.46.31-.04,0-.09,0-.14,0,0,.18.01.37.15.45.25.09.37.13.4.1.19.07.11-.15.21-.27.07-.12.33-.15.6.28-.16-.44-.71-1.05.12-1.13-.05.21,0,.37.09.49.22.12.57.2.93.27.58.11,1.21.18,1.48.29-.38-.45,3.77-.23,3.99-1.1,1.96.64-.62.67-.72,1.13,1.61-1.08,6.84-.15,8.32-.77.03.08.11.15.11.2,2.07-.66,5.5-.82,9.61-1.78l-1.41.8c4.15.34,2.52-1.67,5.97-1.66-.72,1.13,5.7-.09,4.16,1.17,2.05-.65,4.24-.94,5.58-1.92,1.96.63-3.72,1.55-1.01,1.87l2.92-.6.52.61c.12-.46,2.68-.5,2.55-.86.46.74,1.63,1.25,1.5,1.81,1.85-.22,4.45.48,6-.17l.14.36c1.78-1.37,5.63-.28,6.52-1.69l1.15.76c2.82-.14,2.28-1.57,3.59-1.91,1.12-.05,2.5-.21,3.69-.09-3.67.91,1.85,1.1,2.62,1.6,1.34.02,5.08-.08,6.55-.65-1.29.65-.55,1.17-3.47,1.22,1.68,1.38,4.76-.33,8.27-.13l-.04.64c5-.43,5.15-1.53,7.31-2.65.59.79.1,1-1.32,1.8,3.33.47,8.59-.06,12.35.03,1.18.56.41.89-.84,1.14,3.88-.61,8.67.13,11.11-1.28-.96.56,1.56.37,2.99.64,0-.29.27-.67.45-.62,2.37-.57,7.61-1.1,10.39-.6l-1,.41c3.03.11,5.26-.38,7.52-.81,1.13-.22,2.24-.42,3.51-.53,1.31-.11,2.86-.12,4.35.04-.03.39-.08.79-.13,1.2-.15.75-.44.6-.68.65-.25.05-.45.22-.43,1.18.26.36.65.43.95.82.29.41.49,1.18.34,2.8l-.92-.22.93,2.23c.76-1.15.49-4.8,1.34-2.24-.86,2.93.85,2.56-.16,6.12-.09-.82-.8-1.9-1.17-2.48-1.09,7.46.9,10.45-.26,18,.73,3.76.87,8.6,1.55,11.21-.92-.22-1.73-.19-2.46-1.93-.12,3.21,1.96,4.72.61,6.97,1.26,1.54.8,8.92,2.56,9.69-.36.13-.01,3.46-1,.09.58,4.39-1.53,5.78-1.53,7.79.05,1.13,1.12-1.29,1.15,1.29-.08.32-.25.39-.33.71l.41.99c-.4,1.02-.87-1.12-1.33-1.22-.37,3.6,1.02,5.95,1.13,10.21l-.31-.73-.06,4.34-.1-.25.62,3.5-.46-.11c.13.81.41,1,.47,2.13l-.56-.36c.87,1.11,1.34,5.25,1.35,7.26l-.25.38,1.14,4.75c-.6,2.53-1.34-3.23-.91,1.79l-1.15-1.29c.45,3.57-.17,4.1.23,6.54.58-1.1.5-2.79,1.01-1.54-1.32,2.81.34,4.48.87,7.18-.03-1.37-.01-2.29-.68-3.23.02-1.45.61-.52.66-1.41l-.65-2.05.79-.58-.63-3.51c.92.22.12-3.23,1.09-1.86-.39-2.45.27-3.86-.66-6.09.56-1.66.67,2.62.77.86-.75-9.8-.6-19.93-.29-30.15l.41.99c-.41-.99-.75-2.3-1.06-3.04.74-1.73,1.68-8.42.29-10.78.08-.33.28.18.39.43-.17-3.4.81-9.53.66-14.36-1.47-2.05.92-7.28-1.08-9.11l.41,1c-.55,1.65-1.38-2.35-1.87-3.03,1.3-1.36.99-.09,2.19-1.71l-.45,1.92,1.07-.42c-2.75-6.15,1.26-11.44-.74-15.27.1.23.28.17.38.42.15-.64.18-1.22.13-1.78-.02-.23-.03-.46-.05-.68-.03-.24-.05-.49-.07-.73-.06-.47-.13-.92-.2-1.34-.31-1.7-.74-2.92-.92-4.2.53-.91.87,1.01,1.28,2.67.06-1.28.08-2.7.08-4.18-2.12,0-4.46.08-6.81.16-.55.02-1.1.04-1.66.06-.32.02-.64.04-.96.07-.65.04-1.29.08-1.94.13-2.59.15-5.14.21-7.23-.16-1.73.73.65.97-1.15,1.52-1.52-.2-2.59-.78-.72-1.15-4.24-1.34-14.01.87-20.5-.36-3.42.81-1.28,1.16-6.53,1.69,1.23-.52-1.24-1.76,1.88-1.83l.37-.57c-5.21-.11-12.17-.31-15.01,1.28-.16-1.18-.95-.23-2.91-.86-.8.13.07.18.39.26-1.92,1.01-2.89-.04-4.26.12l.49-.21-3.74.73c-.62-.15-1.56-.38-1.69-.74l.02.82c-2.01,0-.97-1.05-3.48-.83l.53.61c-1.59-.38-4.13.47-4.46-.42-.07-.18.25-.1.81-.13-2.49-1.25-6.44.41-9.52-.17l.79,1.33c-3,.42-1.83-.27-1.72-.74-2.01,0-2.45-.42-5.09-.57-1.3.34-.68.49-1.1.88l-2.7-.32,1.73-.72c-4.15,1.94-10.41-.22-13.18,1.56-1.58-.38,1.41-.8.47-1.02-4.92-.85-10.99,1.27-15.09.28-3.15-.45-6.51-.48-9.97-.45-1.73.01-3.48.02-5.24.03l-4.12-.04c-1.63-.02-3.27-.06-4.96-.12-.03.78-.06,1.55-.1,2.32h.36s-.14,4.77-.14,4.77l-.04,1.19-.04.66-.07,1.32c.8,1.43.43,5.03,1.36,7.26-.28-.18-.71.29-.92-.22.11,2.26.5,4.7.02,6.04l-.31-.75c-.22,4.99-.24,11.91.43,14.53.08,1.71-.56,1.66-.99,2.12-.04,2.88.32,4.77.89,7.14-.15.63-.3,1.27-.63,1.98l.87,1.1c-.12,1.21-.71.28-.94,1.23,1.04,4.5.11,9.75.17,12.9l.43-.45c.34,1.31-.27,3.84-.7,2.29-.52,6.25,1.36,9.26,1.13,17.71-1.58,1.18.46,7.61-1.3,8.85.46,3.57-.25,5.87.78,8.35Z"/>
      <path class="cls-1" d="m42.04,141.35c-.37-.25-4.42-.63-4.32.16,1.93,0,3.57,0,4.32-.16Z"/>
      <path class="cls-1" d="m122.08,1.73c-.16-.13-.46-.22-.81-.28,0,.25.2.44.81.28Z"/>
      <path class="cls-1" d="m50.65,2.89c1.34-.41,1.85-.75,1.92-1.08-.85.1-1.55.39-1.92,1.08Z"/>
      <path class="cls-1" d="m21.21,2.39c-.19.06-.39.12-.55.19.43-.07.55-.13.55-.19Z"/>
      <path class="cls-1" d="m5.77,43.17c-.41-1.3-.38-3.14-.62-4.63.22,1.28-.18,3.74.62,4.63Z"/>
      <polygon class="cls-1" points="140.86 .52 140.79 .34 139.25 .98 140.86 .52"/>
      <path class="cls-1" d="m124.01,1.36c.76-.32,1.61-.46,2.43-.59-.64-.16-3.16.25-2.43.59Z"/>
      <polygon class="cls-1" points="72.23 5.27 71.59 5.11 70.99 5.78 72.23 5.27"/>
    </g>
  </g>
</svg>